<mxfile host="Electron" modified="2024-05-21T14:51:32.045Z" agent="Mozilla/5.0 (Macintosh; Intel Mac OS X 10_15_7) AppleWebKit/537.36 (KHTML, like Gecko) draw.io/24.4.0 Chrome/120.0.6099.109 Electron/28.1.0 Safari/537.36" etag="LsmzJou878yJnvWTXY0z" version="24.4.0" type="device">
  <diagram name="Page-1" id="hYoqRvlHGy2lWGpGRYaC">
    <mxGraphModel dx="642" dy="538" grid="1" gridSize="10" guides="1" tooltips="1" connect="1" arrows="1" fold="1" page="0" pageScale="1" pageWidth="827" pageHeight="1169" math="0" shadow="0">
      <root>
        <mxCell id="0" />
        <mxCell id="1" parent="0" />
        <mxCell id="z6kOxebi66tHWxw5jbEy-2" value="" style="rounded=0;whiteSpace=wrap;html=1;fillColor=#bac8d3;strokeColor=#23445d;" vertex="1" parent="1">
          <mxGeometry x="120" y="210" width="432" height="242" as="geometry" />
        </mxCell>
        <mxCell id="z6kOxebi66tHWxw5jbEy-3" value="Barbershop" style="text;html=1;align=center;verticalAlign=middle;resizable=0;points=[];autosize=1;strokeColor=none;fillColor=none;fontSize=16;" vertex="1" parent="1">
          <mxGeometry x="120" y="210" width="101" height="31" as="geometry" />
        </mxCell>
        <mxCell id="z6kOxebi66tHWxw5jbEy-4" value="B" style="ellipse;whiteSpace=wrap;html=1;aspect=fixed;fillColor=#d5e8d4;strokeColor=#82b366;" vertex="1" parent="1">
          <mxGeometry x="175.5" y="280" width="41" height="41" as="geometry" />
        </mxCell>
        <mxCell id="z6kOxebi66tHWxw5jbEy-6" value="" style="rounded=0;whiteSpace=wrap;html=1;fillColor=#b1ddf0;strokeColor=#10739e;" vertex="1" parent="1">
          <mxGeometry x="277" y="223" width="262" height="219" as="geometry" />
        </mxCell>
        <mxCell id="z6kOxebi66tHWxw5jbEy-7" value="Waiting room" style="text;html=1;align=center;verticalAlign=middle;resizable=0;points=[];autosize=1;strokeColor=none;fillColor=none;fontSize=16;" vertex="1" parent="1">
          <mxGeometry x="277" y="223" width="112" height="31" as="geometry" />
        </mxCell>
        <mxCell id="z6kOxebi66tHWxw5jbEy-9" value="" style="verticalLabelPosition=bottom;html=1;verticalAlign=top;align=center;shape=mxgraph.floorplan.chair;direction=south;rotation=90;fillColor=#ffcc99;strokeColor=#36393d;" vertex="1" parent="1">
          <mxGeometry x="170" y="350" width="52" height="41" as="geometry" />
        </mxCell>
        <mxCell id="z6kOxebi66tHWxw5jbEy-10" value="" style="verticalLabelPosition=bottom;html=1;verticalAlign=top;align=center;shape=mxgraph.floorplan.chair;direction=south;rotation=90;fillColor=#ffcc99;strokeColor=#36393d;" vertex="1" parent="1">
          <mxGeometry x="292.5" y="376" width="52" height="41" as="geometry" />
        </mxCell>
        <mxCell id="z6kOxebi66tHWxw5jbEy-11" value="" style="verticalLabelPosition=bottom;html=1;verticalAlign=top;align=center;shape=mxgraph.floorplan.chair;direction=south;rotation=90;fillColor=#ffcc99;strokeColor=#36393d;" vertex="1" parent="1">
          <mxGeometry x="350" y="376" width="52" height="41" as="geometry" />
        </mxCell>
        <mxCell id="z6kOxebi66tHWxw5jbEy-12" value="" style="verticalLabelPosition=bottom;html=1;verticalAlign=top;align=center;shape=mxgraph.floorplan.chair;direction=south;rotation=90;fillColor=#ffcc99;strokeColor=#36393d;" vertex="1" parent="1">
          <mxGeometry x="415" y="376" width="52" height="41" as="geometry" />
        </mxCell>
        <mxCell id="z6kOxebi66tHWxw5jbEy-13" value="" style="verticalLabelPosition=bottom;html=1;verticalAlign=top;align=center;shape=mxgraph.floorplan.chair;direction=south;rotation=90;fillColor=#ffcc99;strokeColor=#36393d;" vertex="1" parent="1">
          <mxGeometry x="475" y="376" width="52" height="41" as="geometry" />
        </mxCell>
        <mxCell id="z6kOxebi66tHWxw5jbEy-14" value="" style="verticalLabelPosition=bottom;html=1;verticalAlign=top;align=center;shape=mxgraph.floorplan.chair;direction=south;rotation=-90;fillColor=#ffcc99;strokeColor=#36393d;" vertex="1" parent="1">
          <mxGeometry x="292.5" y="262" width="52" height="41" as="geometry" />
        </mxCell>
        <mxCell id="z6kOxebi66tHWxw5jbEy-15" value="" style="verticalLabelPosition=bottom;html=1;verticalAlign=top;align=center;shape=mxgraph.floorplan.chair;direction=south;rotation=-90;fillColor=#ffcc99;strokeColor=#36393d;" vertex="1" parent="1">
          <mxGeometry x="350" y="262" width="52" height="41" as="geometry" />
        </mxCell>
        <mxCell id="z6kOxebi66tHWxw5jbEy-16" value="" style="verticalLabelPosition=bottom;html=1;verticalAlign=top;align=center;shape=mxgraph.floorplan.chair;direction=south;rotation=-90;fillColor=#ffcc99;strokeColor=#36393d;" vertex="1" parent="1">
          <mxGeometry x="415" y="262" width="52" height="41" as="geometry" />
        </mxCell>
        <mxCell id="z6kOxebi66tHWxw5jbEy-17" value="" style="verticalLabelPosition=bottom;html=1;verticalAlign=top;align=center;shape=mxgraph.floorplan.chair;direction=south;rotation=-90;fillColor=#ffcc99;strokeColor=#36393d;" vertex="1" parent="1">
          <mxGeometry x="475" y="262" width="52" height="41" as="geometry" />
        </mxCell>
        <mxCell id="z6kOxebi66tHWxw5jbEy-18" value="C" style="ellipse;whiteSpace=wrap;html=1;aspect=fixed;fillColor=#f8cecc;strokeColor=#b85450;" vertex="1" parent="1">
          <mxGeometry x="298" y="361" width="41" height="41" as="geometry" />
        </mxCell>
        <mxCell id="z6kOxebi66tHWxw5jbEy-19" value="C" style="ellipse;whiteSpace=wrap;html=1;aspect=fixed;fillColor=#f8cecc;strokeColor=#b85450;" vertex="1" parent="1">
          <mxGeometry x="355.5" y="361" width="41" height="41" as="geometry" />
        </mxCell>
        <mxCell id="z6kOxebi66tHWxw5jbEy-20" value="C" style="ellipse;whiteSpace=wrap;html=1;aspect=fixed;fillColor=#f8cecc;strokeColor=#b85450;" vertex="1" parent="1">
          <mxGeometry x="298" y="277" width="41" height="41" as="geometry" />
        </mxCell>
        <mxCell id="z6kOxebi66tHWxw5jbEy-22" value="C" style="ellipse;whiteSpace=wrap;html=1;aspect=fixed;fillColor=#f8cecc;strokeColor=#b85450;" vertex="1" parent="1">
          <mxGeometry x="175.5" y="335" width="41" height="41" as="geometry" />
        </mxCell>
        <mxCell id="z6kOxebi66tHWxw5jbEy-24" value="" style="rounded=0;whiteSpace=wrap;html=1;fillColor=#e1d5e7;strokeColor=#9673a6;" vertex="1" parent="1">
          <mxGeometry x="530" y="310" width="30" height="60" as="geometry" />
        </mxCell>
        <mxCell id="z6kOxebi66tHWxw5jbEy-25" value="" style="rounded=0;whiteSpace=wrap;html=1;fillColor=#e1d5e7;strokeColor=#9673a6;" vertex="1" parent="1">
          <mxGeometry x="262.5" y="310" width="30" height="60" as="geometry" />
        </mxCell>
        <mxCell id="z6kOxebi66tHWxw5jbEy-27" style="edgeStyle=none;curved=1;rounded=0;orthogonalLoop=1;jettySize=auto;html=1;fontSize=12;startSize=8;endSize=8;" edge="1" parent="1" source="z6kOxebi66tHWxw5jbEy-26">
          <mxGeometry relative="1" as="geometry">
            <mxPoint y="340" as="targetPoint" />
          </mxGeometry>
        </mxCell>
        <mxCell id="z6kOxebi66tHWxw5jbEy-28" value="client leaves&lt;div&gt;the shop&lt;/div&gt;" style="edgeLabel;html=1;align=center;verticalAlign=middle;resizable=0;points=[];fontSize=12;" vertex="1" connectable="0" parent="z6kOxebi66tHWxw5jbEy-27">
          <mxGeometry x="-0.2" relative="1" as="geometry">
            <mxPoint y="-22" as="offset" />
          </mxGeometry>
        </mxCell>
        <mxCell id="z6kOxebi66tHWxw5jbEy-26" value="" style="rounded=0;whiteSpace=wrap;html=1;fillColor=#e1d5e7;strokeColor=#9673a6;" vertex="1" parent="1">
          <mxGeometry x="100" y="310" width="30" height="60" as="geometry" />
        </mxCell>
        <mxCell id="z6kOxebi66tHWxw5jbEy-30" value="" style="endArrow=classic;html=1;rounded=0;fontSize=12;startSize=8;endSize=8;curved=1;entryX=1;entryY=0.5;entryDx=0;entryDy=0;startArrow=oval;startFill=1;" edge="1" parent="1" target="z6kOxebi66tHWxw5jbEy-24">
          <mxGeometry width="50" height="50" relative="1" as="geometry">
            <mxPoint x="660" y="340" as="sourcePoint" />
            <mxPoint x="480" y="340" as="targetPoint" />
            <Array as="points" />
          </mxGeometry>
        </mxCell>
        <mxCell id="z6kOxebi66tHWxw5jbEy-32" value="client enters&lt;div&gt;the shop&lt;/div&gt;" style="edgeLabel;html=1;align=center;verticalAlign=middle;resizable=0;points=[];fontSize=12;" vertex="1" connectable="0" parent="z6kOxebi66tHWxw5jbEy-30">
          <mxGeometry y="-1" relative="1" as="geometry">
            <mxPoint y="-21" as="offset" />
          </mxGeometry>
        </mxCell>
      </root>
    </mxGraphModel>
  </diagram>
</mxfile>
